<mxfile host="app.diagrams.net" agent="Mozilla/5.0 (Windows NT 10.0; Win64; x64) AppleWebKit/537.36 (KHTML, like Gecko) Chrome/131.0.0.0 Safari/537.36" version="24.9.0">
  <diagram name="Page-1" id="6Pk4Qm77Ibter3LC6f8u">
    <mxGraphModel dx="1034" dy="446" grid="1" gridSize="10" guides="1" tooltips="1" connect="1" arrows="1" fold="1" page="1" pageScale="1" pageWidth="850" pageHeight="1100" math="0" shadow="0">
      <root>
        <mxCell id="0" />
        <mxCell id="1" parent="0" />
        <mxCell id="_PGw2UTZ9y7LMsTRqBj8-1" value="&lt;font style=&quot;font-size: 24px;&quot;&gt;Thirdparty Portal - Thirdparty user Journey&lt;/font&gt;" style="text;html=1;align=center;verticalAlign=middle;resizable=0;points=[];autosize=1;strokeColor=none;fillColor=none;" vertex="1" parent="1">
          <mxGeometry x="150" y="10" width="480" height="40" as="geometry" />
        </mxCell>
        <mxCell id="_PGw2UTZ9y7LMsTRqBj8-2" value="&lt;span style=&quot;color: rgb(0, 0, 0); font-family: Helvetica; font-style: normal; font-variant-ligatures: normal; font-variant-caps: normal; font-weight: 400; letter-spacing: normal; orphans: 2; text-align: center; text-indent: 0px; text-transform: none; widows: 2; word-spacing: 0px; -webkit-text-stroke-width: 0px; white-space: normal; background-color: rgb(251, 251, 251); text-decoration-thickness: initial; text-decoration-style: initial; text-decoration-color: initial; float: none; display: inline !important;&quot;&gt;&lt;font style=&quot;font-size: 18px;&quot;&gt;&lt;u&gt;Login or Sign Up&lt;/u&gt;&lt;/font&gt;&lt;/span&gt;" style="text;whiteSpace=wrap;html=1;" vertex="1" parent="1">
          <mxGeometry x="70" y="90" width="330" height="40" as="geometry" />
        </mxCell>
        <mxCell id="_PGw2UTZ9y7LMsTRqBj8-3" value="&lt;div style=&quot;text-align: center;&quot;&gt;&lt;span style=&quot;background-color: initial;&quot;&gt;&lt;font style=&quot;font-size: 18px;&quot;&gt;&lt;u&gt;Dashboard&lt;/u&gt;&lt;/font&gt;&lt;/span&gt;&lt;/div&gt;" style="text;whiteSpace=wrap;html=1;" vertex="1" parent="1">
          <mxGeometry x="450" y="90" width="330" height="40" as="geometry" />
        </mxCell>
        <mxCell id="_PGw2UTZ9y7LMsTRqBj8-5" style="edgeStyle=orthogonalEdgeStyle;rounded=0;orthogonalLoop=1;jettySize=auto;html=1;entryX=0.5;entryY=0;entryDx=0;entryDy=0;" edge="1" parent="1" target="_PGw2UTZ9y7LMsTRqBj8-8">
          <mxGeometry relative="1" as="geometry">
            <mxPoint x="140" y="230" as="sourcePoint" />
          </mxGeometry>
        </mxCell>
        <mxCell id="_PGw2UTZ9y7LMsTRqBj8-6" style="edgeStyle=orthogonalEdgeStyle;rounded=0;orthogonalLoop=1;jettySize=auto;html=1;entryX=0.388;entryY=-0.017;entryDx=0;entryDy=0;entryPerimeter=0;" edge="1" parent="1" source="_PGw2UTZ9y7LMsTRqBj8-8" target="_PGw2UTZ9y7LMsTRqBj8-14">
          <mxGeometry relative="1" as="geometry">
            <mxPoint x="70" y="360" as="targetPoint" />
            <Array as="points">
              <mxPoint x="70" y="320" />
            </Array>
          </mxGeometry>
        </mxCell>
        <mxCell id="_PGw2UTZ9y7LMsTRqBj8-7" style="edgeStyle=orthogonalEdgeStyle;rounded=0;orthogonalLoop=1;jettySize=auto;html=1;entryX=0.5;entryY=0;entryDx=0;entryDy=0;" edge="1" parent="1" source="_PGw2UTZ9y7LMsTRqBj8-8" target="_PGw2UTZ9y7LMsTRqBj8-16">
          <mxGeometry relative="1" as="geometry" />
        </mxCell>
        <mxCell id="_PGw2UTZ9y7LMsTRqBj8-8" value="Is thirdparty registered?" style="rhombus;whiteSpace=wrap;html=1;" vertex="1" parent="1">
          <mxGeometry x="90" y="280" width="100" height="80" as="geometry" />
        </mxCell>
        <mxCell id="_PGw2UTZ9y7LMsTRqBj8-9" style="edgeStyle=orthogonalEdgeStyle;rounded=0;orthogonalLoop=1;jettySize=auto;html=1;entryX=1;entryY=0.5;entryDx=0;entryDy=0;exitX=1;exitY=0.5;exitDx=0;exitDy=0;" edge="1" parent="1" source="_PGw2UTZ9y7LMsTRqBj8-11" target="_PGw2UTZ9y7LMsTRqBj8-16">
          <mxGeometry relative="1" as="geometry">
            <mxPoint x="350" y="380" as="targetPoint" />
            <mxPoint x="340" y="490.75" as="sourcePoint" />
            <Array as="points">
              <mxPoint x="320" y="501" />
              <mxPoint x="320" y="390" />
            </Array>
          </mxGeometry>
        </mxCell>
        <mxCell id="_PGw2UTZ9y7LMsTRqBj8-10" style="edgeStyle=orthogonalEdgeStyle;rounded=0;orthogonalLoop=1;jettySize=auto;html=1;" edge="1" parent="1" source="_PGw2UTZ9y7LMsTRqBj8-11" target="_PGw2UTZ9y7LMsTRqBj8-23">
          <mxGeometry relative="1" as="geometry">
            <Array as="points">
              <mxPoint x="390" y="540" />
              <mxPoint x="390" y="540" />
            </Array>
          </mxGeometry>
        </mxCell>
        <mxCell id="_PGw2UTZ9y7LMsTRqBj8-11" value="Login Info&amp;nbsp;&lt;div&gt;Correct?&lt;/div&gt;" style="rhombus;whiteSpace=wrap;html=1;" vertex="1" parent="1">
          <mxGeometry x="190" y="460" width="100" height="81.5" as="geometry" />
        </mxCell>
        <mxCell id="_PGw2UTZ9y7LMsTRqBj8-12" style="edgeStyle=orthogonalEdgeStyle;rounded=0;orthogonalLoop=1;jettySize=auto;html=1;" edge="1" parent="1">
          <mxGeometry relative="1" as="geometry">
            <mxPoint x="535" y="220" as="targetPoint" />
            <mxPoint x="535" y="220" as="sourcePoint" />
          </mxGeometry>
        </mxCell>
        <mxCell id="_PGw2UTZ9y7LMsTRqBj8-13" style="edgeStyle=orthogonalEdgeStyle;rounded=0;orthogonalLoop=1;jettySize=auto;html=1;entryX=0;entryY=0.5;entryDx=0;entryDy=0;" edge="1" parent="1" source="_PGw2UTZ9y7LMsTRqBj8-14" target="_PGw2UTZ9y7LMsTRqBj8-16">
          <mxGeometry relative="1" as="geometry" />
        </mxCell>
        <mxCell id="_PGw2UTZ9y7LMsTRqBj8-14" value="Register account" style="rounded=0;whiteSpace=wrap;html=1;" vertex="1" parent="1">
          <mxGeometry x="40" y="360" width="80" height="60" as="geometry" />
        </mxCell>
        <mxCell id="_PGw2UTZ9y7LMsTRqBj8-15" style="edgeStyle=orthogonalEdgeStyle;rounded=0;orthogonalLoop=1;jettySize=auto;html=1;entryX=0.5;entryY=0;entryDx=0;entryDy=0;" edge="1" parent="1" source="_PGw2UTZ9y7LMsTRqBj8-16" target="_PGw2UTZ9y7LMsTRqBj8-11">
          <mxGeometry relative="1" as="geometry" />
        </mxCell>
        <mxCell id="_PGw2UTZ9y7LMsTRqBj8-16" value="Login to platform" style="rounded=0;whiteSpace=wrap;html=1;" vertex="1" parent="1">
          <mxGeometry x="200" y="360" width="80" height="60" as="geometry" />
        </mxCell>
        <mxCell id="_PGw2UTZ9y7LMsTRqBj8-17" value="N" style="text;html=1;align=center;verticalAlign=middle;resizable=0;points=[];autosize=1;strokeColor=none;fillColor=none;" vertex="1" parent="1">
          <mxGeometry x="60" y="290" width="30" height="30" as="geometry" />
        </mxCell>
        <mxCell id="_PGw2UTZ9y7LMsTRqBj8-18" value="N" style="text;html=1;align=center;verticalAlign=middle;resizable=0;points=[];autosize=1;strokeColor=none;fillColor=none;" vertex="1" parent="1">
          <mxGeometry x="300" y="440" width="30" height="30" as="geometry" />
        </mxCell>
        <mxCell id="_PGw2UTZ9y7LMsTRqBj8-19" value="Y" style="text;html=1;align=center;verticalAlign=middle;resizable=0;points=[];autosize=1;strokeColor=none;fillColor=none;" vertex="1" parent="1">
          <mxGeometry x="210" y="280" width="30" height="30" as="geometry" />
        </mxCell>
        <mxCell id="_PGw2UTZ9y7LMsTRqBj8-20" value="" style="endArrow=none;html=1;rounded=0;" edge="1" parent="1">
          <mxGeometry width="50" height="50" relative="1" as="geometry">
            <mxPoint x="360" y="760" as="sourcePoint" />
            <mxPoint x="360" y="200" as="targetPoint" />
          </mxGeometry>
        </mxCell>
        <mxCell id="_PGw2UTZ9y7LMsTRqBj8-21" style="edgeStyle=orthogonalEdgeStyle;rounded=0;orthogonalLoop=1;jettySize=auto;html=1;entryX=0;entryY=0.5;entryDx=0;entryDy=0;" edge="1" parent="1" target="_PGw2UTZ9y7LMsTRqBj8-28">
          <mxGeometry relative="1" as="geometry">
            <mxPoint x="430" y="560" as="sourcePoint" />
            <mxPoint x="450" y="660" as="targetPoint" />
            <Array as="points">
              <mxPoint x="430" y="561" />
              <mxPoint x="450" y="561" />
              <mxPoint x="450" y="640" />
            </Array>
          </mxGeometry>
        </mxCell>
        <mxCell id="_PGw2UTZ9y7LMsTRqBj8-22" style="edgeStyle=orthogonalEdgeStyle;rounded=0;orthogonalLoop=1;jettySize=auto;html=1;entryX=0;entryY=0.5;entryDx=0;entryDy=0;" edge="1" parent="1" source="_PGw2UTZ9y7LMsTRqBj8-23" target="_PGw2UTZ9y7LMsTRqBj8-36">
          <mxGeometry relative="1" as="geometry">
            <Array as="points">
              <mxPoint x="440" y="420" />
            </Array>
          </mxGeometry>
        </mxCell>
        <mxCell id="_PGw2UTZ9y7LMsTRqBj8-23" value="View Dashboard" style="rounded=0;whiteSpace=wrap;html=1;" vertex="1" parent="1">
          <mxGeometry x="410" y="510" width="80" height="60" as="geometry" />
        </mxCell>
        <mxCell id="_PGw2UTZ9y7LMsTRqBj8-26" style="edgeStyle=orthogonalEdgeStyle;rounded=0;orthogonalLoop=1;jettySize=auto;html=1;entryX=0;entryY=0.5;entryDx=0;entryDy=0;" edge="1" parent="1" target="_PGw2UTZ9y7LMsTRqBj8-30">
          <mxGeometry relative="1" as="geometry">
            <mxPoint x="589" y="610" as="sourcePoint" />
            <mxPoint x="639" y="541.5" as="targetPoint" />
            <Array as="points">
              <mxPoint x="560" y="610" />
              <mxPoint x="560" y="572" />
            </Array>
          </mxGeometry>
        </mxCell>
        <mxCell id="_PGw2UTZ9y7LMsTRqBj8-27" style="edgeStyle=orthogonalEdgeStyle;rounded=0;orthogonalLoop=1;jettySize=auto;html=1;entryX=0;entryY=0.5;entryDx=0;entryDy=0;" edge="1" parent="1" source="_PGw2UTZ9y7LMsTRqBj8-28" target="_PGw2UTZ9y7LMsTRqBj8-41">
          <mxGeometry relative="1" as="geometry">
            <Array as="points">
              <mxPoint x="550" y="830" />
            </Array>
          </mxGeometry>
        </mxCell>
        <mxCell id="_PGw2UTZ9y7LMsTRqBj8-28" value="View connection requests" style="rounded=0;whiteSpace=wrap;html=1;" vertex="1" parent="1">
          <mxGeometry x="510" y="610" width="80" height="60" as="geometry" />
        </mxCell>
        <mxCell id="_PGw2UTZ9y7LMsTRqBj8-30" value="Send New Connection Request" style="rounded=0;whiteSpace=wrap;html=1;" vertex="1" parent="1">
          <mxGeometry x="640" y="541.5" width="80" height="60" as="geometry" />
        </mxCell>
        <mxCell id="_PGw2UTZ9y7LMsTRqBj8-31" style="edgeStyle=orthogonalEdgeStyle;rounded=0;orthogonalLoop=1;jettySize=auto;html=1;entryX=0;entryY=0.5;entryDx=0;entryDy=0;" edge="1" parent="1" source="_PGw2UTZ9y7LMsTRqBj8-32" target="_PGw2UTZ9y7LMsTRqBj8-34">
          <mxGeometry relative="1" as="geometry" />
        </mxCell>
        <mxCell id="_PGw2UTZ9y7LMsTRqBj8-32" value="View approved requests" style="rounded=0;whiteSpace=wrap;html=1;" vertex="1" parent="1">
          <mxGeometry x="640" y="680" width="80" height="60" as="geometry" />
        </mxCell>
        <mxCell id="_PGw2UTZ9y7LMsTRqBj8-49" style="edgeStyle=orthogonalEdgeStyle;rounded=0;orthogonalLoop=1;jettySize=auto;html=1;entryX=0;entryY=0.5;entryDx=0;entryDy=0;" edge="1" parent="1" source="_PGw2UTZ9y7LMsTRqBj8-34" target="_PGw2UTZ9y7LMsTRqBj8-48">
          <mxGeometry relative="1" as="geometry">
            <Array as="points">
              <mxPoint x="840" y="590" />
            </Array>
          </mxGeometry>
        </mxCell>
        <mxCell id="_PGw2UTZ9y7LMsTRqBj8-34" value="View certificate" style="rounded=0;whiteSpace=wrap;html=1;" vertex="1" parent="1">
          <mxGeometry x="800" y="680" width="80" height="60" as="geometry" />
        </mxCell>
        <mxCell id="_PGw2UTZ9y7LMsTRqBj8-36" value="Edit Profile" style="rounded=0;whiteSpace=wrap;html=1;" vertex="1" parent="1">
          <mxGeometry x="510" y="390" width="80" height="60" as="geometry" />
        </mxCell>
        <mxCell id="_PGw2UTZ9y7LMsTRqBj8-38" value="Y" style="text;html=1;align=center;verticalAlign=middle;resizable=0;points=[];autosize=1;strokeColor=none;fillColor=none;" vertex="1" parent="1">
          <mxGeometry x="260" y="540" width="30" height="30" as="geometry" />
        </mxCell>
        <mxCell id="_PGw2UTZ9y7LMsTRqBj8-39" value="Start" style="ellipse;whiteSpace=wrap;html=1;" vertex="1" parent="1">
          <mxGeometry x="80" y="150" width="120" height="80" as="geometry" />
        </mxCell>
        <mxCell id="_PGw2UTZ9y7LMsTRqBj8-41" value="View rejected requests" style="rounded=0;whiteSpace=wrap;html=1;" vertex="1" parent="1">
          <mxGeometry x="640" y="800" width="80" height="60" as="geometry" />
        </mxCell>
        <mxCell id="_PGw2UTZ9y7LMsTRqBj8-42" style="edgeStyle=orthogonalEdgeStyle;rounded=0;orthogonalLoop=1;jettySize=auto;html=1;entryX=0;entryY=0.5;entryDx=0;entryDy=0;" edge="1" parent="1" target="_PGw2UTZ9y7LMsTRqBj8-32">
          <mxGeometry relative="1" as="geometry">
            <mxPoint x="550" y="709.5" as="sourcePoint" />
            <mxPoint x="630" y="709.5" as="targetPoint" />
          </mxGeometry>
        </mxCell>
        <mxCell id="_PGw2UTZ9y7LMsTRqBj8-45" style="edgeStyle=orthogonalEdgeStyle;rounded=0;orthogonalLoop=1;jettySize=auto;html=1;entryX=0;entryY=0.5;entryDx=0;entryDy=0;" edge="1" parent="1" target="_PGw2UTZ9y7LMsTRqBj8-46">
          <mxGeometry relative="1" as="geometry">
            <mxPoint x="720" y="830" as="sourcePoint" />
          </mxGeometry>
        </mxCell>
        <mxCell id="_PGw2UTZ9y7LMsTRqBj8-46" value="View rejected reason" style="rounded=0;whiteSpace=wrap;html=1;" vertex="1" parent="1">
          <mxGeometry x="800" y="800" width="80" height="60" as="geometry" />
        </mxCell>
        <mxCell id="_PGw2UTZ9y7LMsTRqBj8-48" value="Verify Certificate" style="rounded=0;whiteSpace=wrap;html=1;" vertex="1" parent="1">
          <mxGeometry x="910" y="560" width="80" height="60" as="geometry" />
        </mxCell>
      </root>
    </mxGraphModel>
  </diagram>
</mxfile>
